ffmpeg started on 2025-06-27 at 12:15:02
Report written to "D:\Convert\FFMetrics\reports\psnr_report-6.txt"
Log level: 32
Command line:
ffmpeg -hide_banner -nostdin -i "G:\\\xc0\xed\xe8\xec\xe5\\[\xd2\xee\xef]\\\xcf\xf0\xee\xe4\xe5\xeb\xea\xe8 \xd1\xe0\xea\xf3\xf0\xfb\\Bonus\\NC\\Sakura Trick TV NCED 2_HEVC.mkv" -i "G:\\\xc0\xed\xe8\xec\xe5\\[\xd2\xee\xef]\\\xcf\xf0\xee\xe4\xe5\xeb\xea\xe8 \xd1\xe0\xea\xf3\xf0\xfb\\Bonus\\NC\\Sakura Trick TV NCED 2.mkv" -lavfi "[0:v]settb=AVTB,setpts=PTS-STARTPTS,format=pix_fmts=yuv420p10,fps=24000/1001,scale=1920:1080:flags=bicubic[main];[1:v]settb=AVTB,setpts=PTS-STARTPTS,format=pix_fmts=yuv420p10,fps=24000/1001,scale=1920:1080:flags=bicubic[ref];[main][ref]psnr=eof_action=endall:stats_file='D\\:/Convert/FFMetrics/logs/psnr_logfile-6.txt'" -f null -
Input #0, matroska,webm, from 'G:\Аниме\[Топ]\Проделки Сакуры\Bonus\NC\Sakura Trick TV NCED 2_HEVC.mkv':
  Metadata:
    title           : Sakura Trick TV NCED 2
    ENCODER         : Lavf61.7.100
  Duration: 00:01:31.11, start: -0.021000, bitrate: 3357 kb/s
  Stream #0:0(jpn): Video: hevc (Main 10), yuv420p10le(tv, bt709, progressive), 1920x1080 [SAR 1:1 DAR 16:9], 23.98 fps, 23.98 tbr, 1k tbn (default)
      Metadata:
        title           : [VCB & Hakugetsu & DMG]
        ENCODER         : Lavc61.19.100 libx265
        BPS             : 3159295
        DURATION        : 00:01:31.090708333
        NUMBER_OF_FRAMES: 2184
        NUMBER_OF_BYTES : 35972527
        _STATISTICS_WRITING_APP: mkvpropedit v66.0.0 ('Josie') 64-bit
        _STATISTICS_WRITING_DATE_UTC: 2025-06-27 08:42:43
        _STATISTICS_TAGS: BPS DURATION NUMBER_OF_FRAMES NUMBER_OF_BYTES
  Stream #0:1(jpn): Audio: aac (LC), 48000 Hz, stereo, fltp (default)
      Metadata:
        title           : [Original]
        ENCODER         : Lavc61.19.100 aac
        BPS             : 194102
        DURATION        : 00:01:31.093000000
        NUMBER_OF_FRAMES: 4271
        NUMBER_OF_BYTES : 2210174
        _STATISTICS_WRITING_APP: mkvpropedit v66.0.0 ('Josie') 64-bit
        _STATISTICS_WRITING_DATE_UTC: 2025-06-27 08:42:43
        _STATISTICS_TAGS: BPS DURATION NUMBER_OF_FRAMES NUMBER_OF_BYTES
Input #1, matroska,webm, from 'G:\Аниме\[Топ]\Проделки Сакуры\Bonus\NC\Sakura Trick TV NCED 2.mkv':
  Metadata:
    title           : Sakura Trick TV NCED 2
    encoder         : libebml v1.3.6 + libmatroska v1.4.9
    creation_time   : 2018-07-04T17:49:55.000000Z
  Duration: 00:01:31.09, start: 0.000000, bitrate: 9470 kb/s
  Stream #1:0(jpn): Video: h264 (High 10), yuv420p10le(tv, bt709/unknown/unknown, progressive), 1920x1080 [SAR 1:1 DAR 16:9], 23.98 fps, 23.98 tbr, 1k tbn (default)
      Metadata:
        title           : [VCB & Hakugetsu & DMG]
  Stream #1:1(jpn): Audio: flac, 48000 Hz, stereo, s16 (default)
      Metadata:
        title           : [Original]
Stream mapping:
  Stream #0:0 (hevc) -> settb:default
  Stream #1:0 (h264) -> settb:default
  psnr:default -> Stream #0:0 (wrapped_avframe)
  Stream #0:1 -> #0:1 (aac (native) -> pcm_s16le (native))
Output #0, null, to 'pipe:':
  Metadata:
    title           : Sakura Trick TV NCED 2
    encoder         : Lavf61.7.100
  Stream #0:0: Video: wrapped_avframe, yuv420p10le(tv, bt709, progressive), 1920x1080 [SAR 1:1 DAR 16:9], q=2-31, 200 kb/s, 23.98 fps, 23.98 tbn
      Metadata:
        encoder         : Lavc61.19.100 wrapped_avframe
  Stream #0:1(jpn): Audio: pcm_s16le, 48000 Hz, stereo, s16, 1536 kb/s (default)
      Metadata:
        title           : [Original]
        _STATISTICS_TAGS: BPS DURATION NUMBER_OF_FRAMES NUMBER_OF_BYTES
        BPS             : 194102
        DURATION        : 00:01:31.093000000
        NUMBER_OF_FRAMES: 4271
        NUMBER_OF_BYTES : 2210174
        _STATISTICS_WRITING_APP: mkvpropedit v66.0.0 ('Josie') 64-bit
        _STATISTICS_WRITING_DATE_UTC: 2025-06-27 08:42:43
        encoder         : Lavc61.19.100 pcm_s16le
frame=  182 fps=0.0 q=-0.0 size=N/A time=00:00:07.59 bitrate=N/A speed=14.8x    frame=  352 fps=341 q=-0.0 size=N/A time=00:00:14.68 bitrate=N/A speed=14.2x    frame=  537 fps=348 q=-0.0 size=N/A time=00:00:22.39 bitrate=N/A speed=14.5x    frame=  741 fps=361 q=-0.0 size=N/A time=00:00:30.90 bitrate=N/A speed=15.1x    frame=  977 fps=379 q=-0.0 size=N/A time=00:00:40.74 bitrate=N/A speed=15.8x    frame= 1204 fps=390 q=-0.0 size=N/A time=00:00:50.21 bitrate=N/A speed=16.3x    frame= 1359 fps=376 q=-0.0 size=N/A time=00:00:56.68 bitrate=N/A speed=15.7x    frame= 1557 fps=378 q=-0.0 size=N/A time=00:01:04.98 bitrate=N/A speed=15.8x    frame= 1760 fps=379 q=-0.0 size=N/A time=00:01:13.40 bitrate=N/A speed=15.8x    frame= 1942 fps=377 q=-0.0 size=N/A time=00:01:20.99 bitrate=N/A speed=15.7x    frame= 2150 fps=379 q=-0.0 size=N/A time=00:01:29.67 bitrate=N/A speed=15.8x    [Parsed_psnr_10 @ 000002c30a87dac0] PSNR y:45.340928 u:47.598461 v:47.322079 average:45.938809 min:38.250015 max:102.270102
[out#0/null @ 000002c3097169c0] video:938KiB audio:17084KiB subtitle:0KiB other streams:0KiB global headers:0KiB muxing overhead: unknown
frame= 2184 fps=383 q=-0.0 Lsize=N/A time=00:01:31.09 bitrate=N/A speed=  16x    
